<mxfile host="app.diagrams.net" modified="2021-04-02T14:06:11.862Z" agent="5.0 (Windows NT 10.0; Win64; x64) AppleWebKit/537.36 (KHTML, like Gecko) Chrome/89.0.4389.114 Safari/537.36" etag="4t4BAzd3KmY21fUVSciS" version="14.5.6" type="github">
  <diagram name="Page-1" id="9f46799a-70d6-7492-0946-bef42562c5a5">
    <mxGraphModel dx="2062" dy="1154" grid="1" gridSize="10" guides="1" tooltips="1" connect="1" arrows="1" fold="1" page="1" pageScale="1" pageWidth="1100" pageHeight="850" background="#ffffff" math="0" shadow="0">
      <root>
        <mxCell id="0" />
        <mxCell id="1" parent="0" />
        <mxCell id="GQivTcVwoKMb2sCNp4ps-1" value="schooldb" style="shape=cylinder3;whiteSpace=wrap;html=1;boundedLbl=1;backgroundOutline=1;size=15;" vertex="1" parent="1">
          <mxGeometry x="850" y="130" width="60" height="80" as="geometry" />
        </mxCell>
        <mxCell id="GQivTcVwoKMb2sCNp4ps-4" value="" style="triangle;whiteSpace=wrap;html=1;" vertex="1" parent="1">
          <mxGeometry x="180" y="140" width="45" height="60" as="geometry" />
        </mxCell>
        <mxCell id="GQivTcVwoKMb2sCNp4ps-10" value="" style="shape=hexagon;perimeter=hexagonPerimeter2;whiteSpace=wrap;html=1;fixedSize=1;" vertex="1" parent="1">
          <mxGeometry x="480" y="130" width="120" height="80" as="geometry" />
        </mxCell>
        <mxCell id="GQivTcVwoKMb2sCNp4ps-11" value="Calendar SCS" style="text;html=1;strokeColor=none;fillColor=none;align=center;verticalAlign=middle;whiteSpace=wrap;rounded=0;" vertex="1" parent="1">
          <mxGeometry x="489.5" y="160" width="101" height="20" as="geometry" />
        </mxCell>
        <mxCell id="GQivTcVwoKMb2sCNp4ps-12" value="Zermelo" style="text;html=1;strokeColor=none;fillColor=none;align=center;verticalAlign=middle;whiteSpace=wrap;rounded=0;" vertex="1" parent="1">
          <mxGeometry x="180" y="220" width="40" height="20" as="geometry" />
        </mxCell>
        <mxCell id="GQivTcVwoKMb2sCNp4ps-15" value="" style="shape=flexArrow;endArrow=classic;html=1;" edge="1" parent="1">
          <mxGeometry width="50" height="50" relative="1" as="geometry">
            <mxPoint x="660" y="169.5" as="sourcePoint" />
            <mxPoint x="780" y="169.5" as="targetPoint" />
          </mxGeometry>
        </mxCell>
        <mxCell id="GQivTcVwoKMb2sCNp4ps-16" value="" style="shape=image;verticalLabelPosition=bottom;labelBackgroundColor=#ffffff;verticalAlign=top;aspect=fixed;imageAspect=0;image=https://integration.team/wp-content/uploads/2019/07/azure.png;" vertex="1" parent="1">
          <mxGeometry x="489.5" y="20" width="47" height="58.94" as="geometry" />
        </mxCell>
        <mxCell id="GQivTcVwoKMb2sCNp4ps-18" value="" style="shape=image;verticalLabelPosition=bottom;labelBackgroundColor=#ffffff;verticalAlign=top;aspect=fixed;imageAspect=0;image=https://www.dcf.nl/images/logo-dcf.png;" vertex="1" parent="1">
          <mxGeometry x="768" y="26.809999999999945" width="170" height="45.33" as="geometry" />
        </mxCell>
        <mxCell id="GQivTcVwoKMb2sCNp4ps-23" value="" style="shape=flexArrow;endArrow=classic;html=1;" edge="1" parent="1">
          <mxGeometry width="50" height="50" relative="1" as="geometry">
            <mxPoint x="290" y="169.5" as="sourcePoint" />
            <mxPoint x="410" y="169.5" as="targetPoint" />
          </mxGeometry>
        </mxCell>
        <mxCell id="GQivTcVwoKMb2sCNp4ps-24" value="Situatie voor iCal (sterk vereenvoudigd)" style="text;html=1;strokeColor=none;fillColor=none;align=center;verticalAlign=middle;whiteSpace=wrap;rounded=0;" vertex="1" parent="1">
          <mxGeometry x="20" y="280" width="300" height="20" as="geometry" />
        </mxCell>
        <mxCell id="GQivTcVwoKMb2sCNp4ps-25" value="schooldb" style="shape=cylinder3;whiteSpace=wrap;html=1;boundedLbl=1;backgroundOutline=1;size=15;" vertex="1" parent="1">
          <mxGeometry x="855" y="390" width="60" height="80" as="geometry" />
        </mxCell>
        <mxCell id="GQivTcVwoKMb2sCNp4ps-26" value="" style="triangle;whiteSpace=wrap;html=1;" vertex="1" parent="1">
          <mxGeometry x="185" y="400" width="45" height="60" as="geometry" />
        </mxCell>
        <mxCell id="GQivTcVwoKMb2sCNp4ps-27" value="" style="shape=hexagon;perimeter=hexagonPerimeter2;whiteSpace=wrap;html=1;fixedSize=1;" vertex="1" parent="1">
          <mxGeometry x="485" y="390" width="120" height="80" as="geometry" />
        </mxCell>
        <mxCell id="GQivTcVwoKMb2sCNp4ps-28" value="Calendar SCS" style="text;html=1;strokeColor=none;fillColor=none;align=center;verticalAlign=middle;whiteSpace=wrap;rounded=0;" vertex="1" parent="1">
          <mxGeometry x="489.5" y="420" width="101" height="20" as="geometry" />
        </mxCell>
        <mxCell id="GQivTcVwoKMb2sCNp4ps-29" value="Zermelo" style="text;html=1;strokeColor=none;fillColor=none;align=center;verticalAlign=middle;whiteSpace=wrap;rounded=0;" vertex="1" parent="1">
          <mxGeometry x="185" y="480" width="40" height="20" as="geometry" />
        </mxCell>
        <mxCell id="GQivTcVwoKMb2sCNp4ps-30" value="" style="shape=flexArrow;endArrow=classic;html=1;" edge="1" parent="1">
          <mxGeometry width="50" height="50" relative="1" as="geometry">
            <mxPoint x="665" y="410" as="sourcePoint" />
            <mxPoint x="785" y="410" as="targetPoint" />
          </mxGeometry>
        </mxCell>
        <mxCell id="GQivTcVwoKMb2sCNp4ps-31" value="" style="shape=flexArrow;endArrow=classic;html=1;" edge="1" parent="1">
          <mxGeometry width="50" height="50" relative="1" as="geometry">
            <mxPoint x="295" y="429.5" as="sourcePoint" />
            <mxPoint x="415" y="429.5" as="targetPoint" />
          </mxGeometry>
        </mxCell>
        <mxCell id="GQivTcVwoKMb2sCNp4ps-32" value="" style="shape=flexArrow;endArrow=classic;html=1;" edge="1" parent="1">
          <mxGeometry width="50" height="50" relative="1" as="geometry">
            <mxPoint x="790" y="460" as="sourcePoint" />
            <mxPoint x="670" y="460" as="targetPoint" />
            <Array as="points">
              <mxPoint x="730" y="460" />
            </Array>
          </mxGeometry>
        </mxCell>
        <mxCell id="GQivTcVwoKMb2sCNp4ps-33" value="" style="shape=image;verticalLabelPosition=bottom;labelBackgroundColor=#ffffff;verticalAlign=top;aspect=fixed;imageAspect=0;image=data:image/png,iVBORw0KGgoAAAANSUhEUgAAAOEAAADhCAMAAAAJbSJIAAAAh1BMVEU2Njb///8zMzMvLy8oKCgsLCwuLi4nJyckJCQiIiL4+PgfHx/s7Oz8/PyoqKjx8fHf39/Y2NgYGBjMzMyCgoLl5eVXV1dra2tGRkbIyMg8PDxMTEyVlZW3t7ebm5tycnLAwMCMjIyDg4NhYWGwsLB4eHhUVFQTExNKSkqhoaFnZ2cHBwdBQUFgNlD+AAAKfklEQVR4nO2d2ZaqOhCGY0IARVRAnHBGtO3j+z/fQe3dY1JJME3KvfZ/0ze9gM8MValUKqTzt4u4/gCJeqvE0pMwEvaTNaWc9+w8DR/hfH1MOaUk7dt5HjLC/mBGPEqu6mZ2HomKMNt5wR2vljew81A8hHE2WXDyIX9v57lYCOPtJKWUfCYc23kyEsJRyRj5Kr6082gUhPk4/c5HSLi183AMhPOj94Pvb5pLh/uUCgD/HnvYfxU14JVwaOcFrglH4c8ReBf7O7y2+UXYQ6/GYh/beYVbwq0vAyTBwdI7nBIeqBSQeJaMhVPCLQBIJ5amUpeEcwCQsKmt17gjzBcAIPHOtt7jjLAPtSAhJ0u2wh1hr/IhQDqx9iZXhOsuBEi6tmZSZ4RJBALSYmTtVW4Ih1OZr3YXt7S+v8oN4QDuoyS114RuCHshDEgLiy9zQrjjMGFkafF7kwvCUQGaQsI21oxhxw3hQNFJ/bnNtzkgjEF3rR6FF6uvc0CYwbaQcFu7Tnc5INyA/hrxxpYW929qnzCH5xl6sRSB+qP2CVcB2ITpyvL7WieMYWPId7Zf2DrhkEGdlM5sBS/e1TrhCJpJqW/RIX1T64RLqJNS24Ow44BwAnTScPcLL2ybsAfYCq/6jTe2TZjJXTZvatPhflfbhAOpNeTl77yxbcKzZC+tBrRuJ+5qmVBq773Srjf6oZYJh6V4GAZTy97oh1omzIUhKMp/ZRa9q21CkUdD/fUvvrJlQpHPxhc2A08/1DLhz1g3O61/aRJ9U8uE269BKMrp1G7M4qcsEca1dP7v8Nng8/S4FKwl4tF8uxrsNuWxmJT75WC13Y4e8HYeJYyT83hcVZtaVTUenxMY9L6yoMznXjfdJ/mPfxgOxpsiDAOPM1rr+o9h2C2m1frn/+rpAcI8O5T/pZHn12JX1X+9KD0tlvNMNrTK0Au74eJ1vD/8aJY4mVdp6vmCJXJN6qXpTvpYSE0J48O+6AbCHSTKw6juXcKwbrUbbOdZIjDvya6iXTgKx7vl0rwlGxHGydjj8lSYK6XPOV+sk5HW6MyTKvA5jPf243mvinFghTDbnzS+5vo9EdmtVcauP9hdIq3n3cSisZn5NCccTali6+jrj04u5SHvC3/4uD9aFxfO4Sj/d/n01WQ8mhL2zoH+7/1GSYPoshusvn1WL6sb73buwFj8YuDmGRImE8Mf/A8l91gxmS6z/vCq0ba2dguv2bOujwv1HQUjwvggzZXU+SzKeDe9KQp92qTxPsS0Y+NGhBtw/mxXlI31HB0DwryURSDcyJtpGUd9wrzQn0LbEXvRiZBrE2aXB4bgL4nqpE7pEiYIAWvEhXq+0SRMZhgBr2ZD2Yp6hHmBE/DaiipELcLexNSPaU/UU7ipOoTxBtss+ll0Brs3OoQ7XHbwu9gCdMQ1COeYW/AqVkCIasJ8hsdVkyjcAatiNSHiWeZNvITcNyXhQZFm5178BfRPVYSJ9OgVFvEpvOJXEU6xTzPeURHSUBBuFXmEzuWNVRuPMOEQyg3BoECd3QATHnDbesIr9dYxSNh7LJby69LaGwcJ13CipGv5G524KUTYV+TUO5ZfamU3QIS4RyGb6eUxAoRDRU69W1GtMBRMqMqpd6uT7v4MQIh6FDLtTFQ5IZBF6F5c/+CQnHCNeJ6hM10+gLB/RNyEzOBklJRQcY7VqYzKD0kJFWd3XIr6Juk1UkKCt5Oa1VeSEc7xAvpm+eAyQvBYhFsxs7P6EsJehXWjwrjcgoRwhLeTRoZnaCWEeH1SqrdmUhKu0Q7DwLSsi4QQbRiYwuFffUK0nZQZn6wRE+Zo29C8mqKY8Ix2GJpX4hMT7rESso3x4SEx4Rir292gTp2QUFUgx50C82O0QsIR1m1fejE/XiMkzLDGuptU4hMSzhVFjpyJvRoDSgixmkO2sUS4wkrYpMa3kPCAdRw2qYAtJES7wG9SiV5IiNalsUaI1uBbI0Sbn2CNEG1A3xoh2n21f4TahHh7aYPqws810zSpkyUklBSvcK8m95Y8lz1sUuVbSAjXaXYo9mpe40VIqKqg6kzWVsBoPW/aoEjIc62erEWi0K6ArUUTt2gJmXnFs+eK0xAS2YnqZ1hjbYR0jasoiwnxJnyZxxOfK+Z93SE1tYhCwj5ax7R2vk1nUyEh4lwT4leGs+mT7a7VigzL1D7ZDikxX0GJCdE6prUoMZtrxIRot9eu4mbBGjFhjNfkX7dJjVJqJPk0qWsMSIFRIUkJIV6Tf1VooU6UtBguChmF3J4uN/EmarDUlxAmqNuQMIPLhCSEeDNq7gr1JxtZnjfacNtddPFwNTO8KbR3saNu5FRGmLtGUEn7OppnPFFyl+6hBCkh2sj+u056IRspIXKLSLRnGylhjvwsPrkWYtQx/FLCHuZ1/pso0WhF+RnSAW635iadnRo5If7KNLVoqpxugLPcaPMVPotS1R3sACHmo86fFJSN67XlqBf6H/IXYE4mQNhDHPn+Iurxg3zVD1X+UN2miUc0mEiXUxBhgjta80XUOy3FW4tgBZ4S9zL4myLxcAQJ8e52iyQJ98N1otB7358licDBtb4w71/8UCSeT2HC7IkGIl2IGWDC3uvzIIaSZCJFVUH5VXfYRGUV2hWE8cn1l+tKGulX1b5EHjf9EJX53yrC7ElMomye0ahBiz/mdlMkXewrCVdPsUqk8jqt6krJ+GNuBNzbVxM+wxoK2trXqOf9BBEpDuTYaNRkfwLnVOKS6hLij357UKBG5+YA7AaDXqBomw7hCHnQzQfPsGvd4IHcdYNzv7UIM9TbpcEO/Hi9e2YQF1EktIDT3PQIR4gXUYGiCoHmbUh4RyJVEeje94TWsYlUJ6E0CTsV0kb0lQWFdQmHSEOnkXKfW5ewc0YZk/LU5Vy0CXOMW8LAwtecsHNA2E91DtDoE3Ym6KLDsENqTojuRBvlVu+w7OBbCuvV1jchHHZRTTZcr/yACSGuO+YofGVeM8IYk2dDH80vFWqIJ3ch0D3CZkaI5w4vX7variEhlmWUQfkIU8IhDruf6pcTNiXsJCmCodg1qC5oTNjZuifkuicRmhF2xq63ahgxKR3RgLBTuo28SXMS7BH2jy5nG+ppH3lqTNgZLtwhUmJYZqgRocO8TGp4Q0lTQmdxfupbqquv1nzmoqNSYgzYmLCTNRqLlPr8Jr9JH6Dm9XceIOyMjqZGgwbdRbnfLWvtqokXeYaU8E6ofcJO/0U/cEMZ70Yvq2T0Z9Xay5NscIlCzrQxedf0epJHCeuFhuYOPw0Xm6Xw98+W1ayr1xdC5d3Gv0AYb0/qxRTjabFKpLsLcbLdRJFyWLLT2bxk4k0PEdY9dR+CEw71+FRySuCzsnHJAgCShq9NhuBNDxJ2OqtJJPs0yiI+0Jzeh/NBcfLEg5IG9GBciO5dDxN24tWEC0YS5fw4lXdOgXr9QXnk3vc+wYPjutkIvOtxwlqrKgroZ7Ewna1XDb6rvxps0qjr+YzVhtMLu2m6OzzCZ4mw/vkPk6J4mb1cVRRFuc0bf1avn8/P1WZT7ZfnVZb3G04w77JDeFfvpke/yLZsEuLUP8Ln1//IJsCM+672EQAAAABJRU5ErkJggg==;" vertex="1" parent="1">
          <mxGeometry x="404.34" y="600" width="55" height="55" as="geometry" />
        </mxCell>
        <mxCell id="GQivTcVwoKMb2sCNp4ps-34" value="" style="shape=image;verticalLabelPosition=bottom;labelBackgroundColor=#ffffff;verticalAlign=top;aspect=fixed;imageAspect=0;image=data:image/png,iVBORw0KGgoAAAANSUhEUgAAAOEAAADhCAMAAAAJbSJIAAABUFBMVEX////qQzU0qFNChfT7vAXy9/8idvP3+f89hPT7ugA1f/Svx/r7uADqRDbpNybqQTMlpEnpOSn8wADv+PItpk71rajqPi/pMR/1saw4gPSmw/r5ysf1rKf86Ob+8vH50M3ucmnoKhbpPDf5/frH5c70paD2uLTsWk//+vrrU0fxjIXznJbrSj3619T//fL93Y77wjL95K3+78n8z2z92YL8zVb/99/8xEnQ4Pz+67v+5KWOy519qPe50PvX7dwzqkax27ve8ePuaF7vf3jylI3whX30lyPoLDj4qQ/rTTLuZyvzhCHxeSX0khvtXS75rwz5slIAafKVtfje6f1OjvXWxVqcsjWXt/jruw15rkBMqk1KsGVvnva3tCpmuXphq0iAqvfNtyGOsDp4wou1ti6g061orrE3oHs2pGk/jNg9ksI4nog/js47mKY8lbM6m5YY6NYWAAAINElEQVR4nO2b2X/aRhCAhcA22EaHwVII5iqHwQY7zdGkJQGM7fRM2zRumlYuTUppkh7p//9WIS4JxGpBu1rJv/meEj+s9HlmZ/aQOQ4AAAAAAAAAAAAAAAAAAAAAAAAAAAAAAAAAAK/JZjKNdGW/XD4ulw8q6UYmk2X9SuRoNC7y+bhgIA8Z/VPs5i/TuaB7ZnOVfFcWZEURQ/F4aIb+H1FRdNfDbjmdrbJ+zzXJVo5qgqooIRSiIqi1/EGG9cuuTrZyrqoyUm6Goqrd/WBJ5vJ68DD1xpJCoVth/dq4ZCuHghKKO1stRLIWiEBWyzVhtfBNiStC/cLvxbV6UFfF9fwMREEp+9px353fyFHcZ62xlFxNcOtnOKq1HGsVWzJHsrJ6ebFFkY98WHIqNYGMnoFQS7MWmqN6VCCRoDPEwjFrJwu5ukAoQafE1UMfZeqBTDaAI5SQXxY51XMiJXQRUbjF2s0gmydZYqyolz7YWDXquDuItRTzzFc4aYf9n1sKrLtGjtIUnMB8JuaoFNEpcfWGC4YKB4wF05RTlHkEGwpVQfbdMFu/4RGs5mn2QX0OMt8Hn6+6kokP933GebeMkd4q6yLDHawkKIqCKsfr3cuL4/Lx8VG+HldUFeHJfg6u0ifioqLWu8e3Gtnp6X01m81UDro1VRbtN13sBav4VUaR4/l0xm4BXc3mLu1PHpkXGY47wszRuFw4rKA2stV0vrBQsZg3eo6rFPB29Ip63nAcLHMkWB1V5lWUy9SwclSRMfyM8c5lU66yn4OYOSoKh/innrnD6QLQD4I5nFavCMerbM+rF2PFgg8EuUOMPa9Qw0vQGbn6cFj2jV7nlupcZgoXq5+vZLqqL1IUpxWKcnmtkS99kaLcvuooKK55tlJlfSZjcPL0cydBwZ83R7ic7n3x5UdowVVrjL84uROL7H6FUBTVYAtyH+9GInuRr5cryr6YSy7QQ6iz93SJX1y4YP2GLrm7GzHY27WfjMI56zd0y4NYZMI3Nopijfktg0tOZoKRvWeLhoVg9wluVGdmigttQw76JOS4e6YYDiejtW2IIR9c9rnjxBxCw9HSNgS/XEqvz2fzhnqmhqaOSjfwIeTuLRhG9r77dqIoBL3XD1dsC4KmtqHkgx/CuzFbw71nxm5DDX4Irb3Ckql62xBrwQ+heUEzp6i3DYH9Iad7Hi4zHLaNQtDXa9zSaThW/B53mK0N97Aw3P0Md5jbzzfd8vwRHcP7SMO7uMPspMJuSf1Ex3BpodGJ3cEeZmfbveEPDAwfeGp4TUXwBJGjKyQpCcNweIuG4SdL+v0oht4aprw3vHPiqeE2lX6BNHxY9NaQSrv4FGEY89rwCQ3Dxe2vqdDcxx+HiOFtzw1Pb4LhKaId4q/ZfG2IiuHNMIQYBt/wxsfw5tfSm98PUWsaz1dtVAx9tS713tDrvYX3hh7vgOkY+mmPT2dv4aNzmvD2C+8NPT1ro3SKQey81L+GyDPvGPa6jYBh9IqF4Y/4hlEckCF8TUUQdfcUi7yUErjDbGHxBBFqWqf6iFLz6mde6pB9GCqZt3fIPmvKsjvg2KtfeJ7X8BduOFwj8nSTTrNYPhF/5YdIJZLP2rhCGdK6QFzyLcbvhiCf7JEM4iNEkkbpXMwMsfmeJvbqN34M0SC+RtwyUrp6GrK4CY694aeQDCIySSmtSocsfNcWecmbIFhOUb0inKJ0yT3E+m2iKUPHEAsiKoTRK1JPscHSL8wZOg5ik9Bz0CGkdMdtYP5GeNwkrIotMs9BhZDmNORMy5rYpElY0bDXbiiQIQyHaXVDg8m3+qNljE0Q+wQesoH0Sz0m8AgEo7+3WJyCJKfiY+QXN3STdFRrYtYmMafouu8/cfikiGqSGn/3FNN3EgjcVptHKfTekGYlNTjdfWM/BQkpbqE3v+FNiu1+xMkfaD+Xibpxhc5Rqu1+TEdyVOTXVty4dpiEtOvMkKKzIC8N1hv7hZNglM73XnPgBFFqrrNEfRR2+jKT2gmNFS2JoaitXm92Nh38wtRbxZgWRhD55KphbP3pLEjnRsaGJo6iHsYSvmNxwLffOiVp9MqbEHJcQsMx1MPYx0zVYknTf2nSu/foJbdnIdSLTRtLEdexo42SItn+C6lI6TDfFrw8NRy1zhlyqFZTmg3W/ju1PFPpL2dMFHHq6cSR75XObGdkMdHqa5JlJD1TlynS3jbNUcI2HEs2O61EYuJZTCQSrc6gp0nS/DhJ/h97xahHnWLKADdPJ8EZ5mKv3xwMBs1mXzN+YP9bav9rOxm9WK9Z6a+oaAQoKQ1JohOg/dZm+b392mtBrthbJVFX+0XwC22D1qUokgRPUfGDVTFK6dsEB1rUDPVM/S9s3gl7PwlHlNaYitiK70xrOAaTcKJIMYqmBQ47QbpR1NvGKFO3HzOoMh4pGruN1LXHrX5e0aG5uULS3m+nWPQJCy16TUOn/eGataDeF3sUM1Xqk/3EYz2K6yzgMAXXOtGiwIBSoq57KkmBEk8hjMkk0U90XFJsYh5s4CP1iFy3kmNy2EKIpNTxyRSckWgu2dKug9Qj9EkAWUqkwigl/RfAMR0SFScpNX02A80UB24dJamPPn5kTnGguZiPUhL3nJwlic66jhLf9Hn8prR6y84Kl5KU2lrHx/NvgUSnL0nYUzIpSdogKOGbUew0NcfDUeMMVesNghQ9M4lWp9dbegZsHBBrvU4p4dfuh0mr1ez1eGkBrddvtgJQOTEpJs7OSp3BiE6pdXYW1LwEAAAAAAAAAAAAAAAAAAAAAAAAAAAAAAAAgCDzP7hHIhidm1CRAAAAAElFTkSuQmCC;" vertex="1" parent="1">
          <mxGeometry x="504.84" y="595" width="75" height="75" as="geometry" />
        </mxCell>
        <mxCell id="GQivTcVwoKMb2sCNp4ps-36" value="" style="shape=image;verticalLabelPosition=bottom;labelBackgroundColor=#ffffff;verticalAlign=top;aspect=fixed;imageAspect=0;image=data:image/png,iVBORw0KGgoAAAANSUhEUgAAAOMAAADeCAMAAAD4tEcNAAAAflBMVEUAccX///8AZcEAa8MAbsT1+PyNtN4AbcT0+v0AZsEAasMAaMJdlNF9qtqGrtwAYsAKdMbf6vbt9Pq4z+rm7/g6hcwfe8nE1+3P3/Hh7Pbw9/xNjtCZu+F4ptmYuuFpndWrxuZvodcwgMvL3O+lwuRKjM85hMy+0+uxy+hYktFuXN/0AAAKTElEQVR4nO2dW5uqIBSGFdkRWpkdnWaayun4///g9pBagrKwVOzhu9gXuxF5AxbrgGaYbWvoXwejqfEk9K/JOxpNNl6UNw/pELIJNj6QcbH+2QUOcixi8NRzxo2/3y4pctjB+whG7zq5GS6tpOsv49fld7dC1LaEdH1knK2Ph0A0NXvLGC688clGkKnZQ8Zwx5vcpvXoesDoXaIdD77w+sUY7niHwC3d8XrOOPs7bpeWrFnpC+MwMiv4lYWnNKN3HdwwaD/vI2PkSMvs5/1izB3pBvE6Y4zNirS30hfG0KxMvpswK2owJhFsy3StMS7WcZjwnv1cQcZw4aH2Fl43jB3TtcKohDSjZtSMmrFNaUbNqBk1Y5vSjJpRM2rGNqUZNaNm1IxtSjNqRs2oGduUZtSMvWFsElERRjKeVGosr8nP3FOK0SBWlUgNWbaDrO2XQowNibjbj2c0DHv5+YyGPf58RsPddN2D5uXMu+7BXRQ1ICdu2vrtmO0uOhu+qE2mWarNXwxpDbqmS9SMLze3o7bJRzOO42NjZNI1XaJmGJOH88i4Y7i7GmH0Udw22XYMd1cjjLvkhCM5vNg5jAnBrx+4a4LxPowG3r2AZ1NkBN+j3e08pdR+6VhoA4zDrJ91GbGNvn/8vGfedTtFlkKMm1U6u/CoVpcIWl6HTLPeBNOa0/btjF/5Uwy1GAlNQk+O5ud6lO9m9J28G/gm3R3sbjcVrV+mdveMf+ixwyfZ3tBl2Rim+kVdP/94cR/bxku5vmB0FN9iEUgP5VsZ90+IBj5LdYVMRYOY6IDEbTXG+JsipgflpRij3IjkfdpnnKTfr3P4TiADGcQR/E57Ocj3MR5o2uTBvDOumkGUhXwb48hJW5yY8ozkW+5uAypu8+2M36m1cwemPCNeyd5vJOHavYlxmd7Sjc3/nXFaft9nOTPpO07h++RbGP+t0rjAvZo1GNFF/p4+fEm+g3E2zRDXZg1G61DnrgdwvPUGxkUWxiLffGIECpc17K/9Relth4645XcxevYdCDtpSc68Sb0yZM5rdj0iiFKKyIj7cagB1Kl7mdFPrTgmuSsmw4h5/s16RdOpSByL78YOofvHq4zr1LnB0wfbKMOYTfAH7dynBpwV15PdAlfki4zzzEVdPYbuEoz4xDQ6WxU3P4z+ODf3gM75a4zHDDF4+n8JRrb3M14qzuWMtrmC3YZ6nGuhygIAuzAYcEaOh8Pf3SnHTTgCrY5dHzILNOxb4RM4o70vtlripRF2TpszqB/AW/MgZYEG3RU/gjPSYgbuWrbI0JrtwhJ6H97FAGWBBt0yn4EZCRNSlfraOGBuY/6A8x53J1NOWaARxVKljCJvzilu8BUbO8e2Qi2rkQYLUsoDjR/Op2BGZqpWOGjsmEsdHImDPgkN80CDsRmRRkBGxsfZVzmhiE297iQKIbwJV65NHmjwnUkoo/1buPBctZBtdrrtZRKR9ABHXBhZoFFirqCMtLDEFpXri+MSeSCfNR0RB5w08iwmlqrLiArLUTAsxT8PBWEk42wjB6aN/LSwgsvdByAj4+SMqpcXZadNANilUJ7Hs0BJ3DzQwOXxK5CRHArXCTprsaYRkg1AM/OS9poE7FwoKg80phUFJiBj0eRUL8fwa2WnGsQLCBmz2nbYb1EUsufHUjUZnUKuai1aXRZzpzkg4xHvOV5aNMRGdRLwJ5vX58q/AzLSgs0SxhHsDukDPJ0kfsyKv9iqqh0NMvvECQJqMKLCNzoWLa7ilyKe3jmjOUu3PMw2k2mbTiUmlqrJ6BYvEzEWJ3focQHCqzQPsJmK9nVzVx5L1WR0CpcJQyU22jTh4/iU6+b7Z7d0sXBiqZqM08JlwtyFzQYAkP0xs6QCP/tUFUvVY2RcAGFvORskIBf/mLMKMkj26zpXxlI1GYtRr7AWxWEE5K2e8nJZUFgcq39ZS/xYqiZjcQNqg9E8pXd5DkNmmUECpgwUHseHDMZjGJIXbVxgEa2p9cixOZLrMe5d6hvlxywyLwiewoPGVrL95ewdgHoykyfPdkESJB9l3hKG55uhvlzhssosQCTWBzAlfIBcmTdD4ipNHktJZJtr+jnClCU7kYYyPkCuzCvFxDOv6feEjfJwsS4jKjQp9FeLDm7oaddjzCs12BrkYZfMsQQoo2zcUZzcpvkHSHZw61ZZIJxle3BluFiXsZhBFsWPnHIsJDHHr835hcOwFicPD2CcSuYBZoKJR1hPeVDHriZaGI9LwxHFUjUZSTGAEaVj2a0DUlkpq7EOz/kkkMm9SjEyToAgA4VYyy4mrKoj79KJI1sogDMyCVNBdoY95AJJA1TVyhPzals1SndQxmLSofqoBjO1TfMCOaRTdR7AtxDCAymDKsnI+J+V2Q6mkAfYUUWM5tCT2PfrMDIJ07+qucfpK+jUQzPPzUEZDVui05ypCvFyGmZciWusxcV+Ke+1y1pVWK28Y0Z2Vy/NzXGGEVTR6ZzRIMVLS3cDm/MMFuw4QNeMbLltz++4y9nCQFa1e0bOQYYxb5PkHssAHnzsmtFw2RLfmB1JbsYTepSsc0ZOGsrcPx/tNAj/GC+MUAFGpiAQaXFC+VLD6MSNz6HDqAAj5aZs/R2lFsHEctA37+xq6ISBn/DonhHzBjLSZbC7jSbzshzLuEeM3BUpltfu8x2spBg52TaAgGeQVWFkajsAjSUOkanAGL0VSlIVrruijAYCVfxywWIqtRjBBbFEQwO+GNVhlIIcStgblRiBBepYgeQbSpRhNJD4uEis/IBw/xgNO4BkyHz5X7BTiNHAVOzx/Mq+AEExxnAop9UJay8AP9jZFqM491gUpkHZI53hrrir8UIS9RgjSmPALcqvb6jmG5+UYwxloelk/eSnL64Hm9Z+p5WKjEb0gK5rnLaD43F/HBxOGL300q5GGSXegsARJpZtO/brvxGtMOPbpBk1o2aMpRlbkmasK/Czuq1IM77IWN+Xe6uaZMRLRRibQLzbHLJTg5FMBg0oeUGg9asGo+A3SmoqaZr+KcLYoKj58YzW9vMZ6ezjGaMKxqcy4kiEkihTqggj9DdKKE+Pf+Ci6HXw01VwXp5u2yRLqgYj/Yp/VGSzYX94JPz/RaKvUB5P0QfRH8zCy3m+gBqMDf/enGZsSZpRM2pGzdimNKNm1IyasU1pRs2oGTVjm9KMmlEzasY2pRk1o2aMGfHLBzPVZzxuzzZy7G5JG2aM/llcfneBSx3rpR8AVpsxkTcfjKaI2lb7Q9oaY6yhf518G4g6rU7edhkTzf6O26XT3jLtgjHRYv1zCBByXj8Try5joq/QIK1oswapa8ZEsUFymzJIajDGig2SFZ0qeDOpQoyJNv5+e3ovqXKMiWZ/P4fzu0yvooyJIg9p9bqHpDRjotgg0Rcmbw8YYw39fewh1SHtC2Oi2EOissu0X4yJQg8p9BtCDwkI2kfGREkggwBD2l/GWOEyHYe7afXk7TljonjylsemH8GYyLuWWN4PYowVWt5DgJ/lfhhj+/oPxMXd6N14ohkAAAAASUVORK5CYII=;" vertex="1" parent="1">
          <mxGeometry x="629.34" y="610" width="46.32" height="45.3" as="geometry" />
        </mxCell>
        <mxCell id="GQivTcVwoKMb2sCNp4ps-37" value="" style="endArrow=classic;html=1;exitX=0.5;exitY=1;exitDx=0;exitDy=0;" edge="1" parent="1" source="GQivTcVwoKMb2sCNp4ps-27">
          <mxGeometry width="50" height="50" relative="1" as="geometry">
            <mxPoint x="520" y="580" as="sourcePoint" />
            <mxPoint x="630" y="590" as="targetPoint" />
          </mxGeometry>
        </mxCell>
        <mxCell id="GQivTcVwoKMb2sCNp4ps-38" value="" style="endArrow=classic;html=1;exitX=0.5;exitY=1;exitDx=0;exitDy=0;entryX=0.5;entryY=0;entryDx=0;entryDy=0;" edge="1" parent="1" source="GQivTcVwoKMb2sCNp4ps-27" target="GQivTcVwoKMb2sCNp4ps-34">
          <mxGeometry width="50" height="50" relative="1" as="geometry">
            <mxPoint x="520" y="580" as="sourcePoint" />
            <mxPoint x="570" y="530" as="targetPoint" />
          </mxGeometry>
        </mxCell>
        <mxCell id="GQivTcVwoKMb2sCNp4ps-39" value="" style="endArrow=classic;html=1;exitX=0.5;exitY=1;exitDx=0;exitDy=0;" edge="1" parent="1" source="GQivTcVwoKMb2sCNp4ps-27">
          <mxGeometry width="50" height="50" relative="1" as="geometry">
            <mxPoint x="520" y="580" as="sourcePoint" />
            <mxPoint x="450" y="590" as="targetPoint" />
          </mxGeometry>
        </mxCell>
      </root>
    </mxGraphModel>
  </diagram>
</mxfile>
